<?xml version="1.0" encoding="utf-8"?>
<!-- Generator: Adobe Illustrator 27.8.1, SVG Export Plug-In . SVG Version: 6.00 Build 0)  -->
<svg version="1.1" id="Layer_1" xmlns="http://www.w3.org/2000/svg" xmlns:xlink="http://www.w3.org/1999/xlink" x="0px" y="0px"
	 viewBox="0 0 677 237" style="enable-background:new 0 0 677 237;" xml:space="preserve">
<style type="text/css">
	.st0{fill:#FFFFFF;}
</style>
<g>
	<rect x="2.5" y="2.5" fill="#FFFFFF" stroke="#FFFFFF" class="st0" width="672" height="232"/>
</g>
<g>
	<path d="M73.67,104.83c3.15-5.59,7.45-9.96,12.9-13.11c5.45-3.15,11.5-4.73,18.15-4.73c7.81,0,14.63,1.89,20.46,5.65
		c5.83,3.77,10.08,9.12,12.75,16.04h-11.21c-1.99-4.32-4.85-7.64-8.58-9.97c-3.74-2.33-8.21-3.5-13.42-3.5c-5,0-9.49,1.17-13.47,3.5
		c-3.98,2.33-7.09,5.64-9.36,9.92c-2.26,4.28-3.39,9.3-3.39,15.06c0,5.69,1.13,10.68,3.39,14.96c2.26,4.28,5.38,7.59,9.36,9.92
		c3.97,2.33,8.46,3.5,13.47,3.5c5.21,0,9.68-1.15,13.42-3.44c3.73-2.3,6.6-5.6,8.58-9.92h11.21c-2.67,6.85-6.92,12.15-12.75,15.88
		c-5.83,3.74-12.65,5.6-20.46,5.6c-6.65,0-12.7-1.56-18.15-4.68c-5.45-3.12-9.75-7.45-12.9-13c-3.15-5.55-4.73-11.82-4.73-18.81
		C68.94,116.71,70.52,110.42,73.67,104.83z"/>
	<path d="M162.04,156.91c-4.28-2.4-7.64-5.81-10.08-10.23c-2.43-4.42-3.65-9.54-3.65-15.37c0-5.76,1.25-10.85,3.75-15.27
		c2.5-4.42,5.91-7.81,10.23-10.18c4.32-2.36,9.15-3.55,14.5-3.55s10.18,1.18,14.5,3.55c4.32,2.36,7.73,5.74,10.23,10.13
		c2.5,4.39,3.75,9.49,3.75,15.32c0,5.83-1.29,10.95-3.86,15.37s-6.05,7.83-10.44,10.23c-4.39,2.4-9.25,3.6-14.6,3.6
		C171.1,160.5,166.32,159.31,162.04,156.91z M185.84,149.92c2.95-1.58,5.33-3.94,7.15-7.09c1.81-3.15,2.72-6.99,2.72-11.52
		c0-4.52-0.89-8.36-2.67-11.51c-1.78-3.15-4.11-5.5-6.99-7.04c-2.88-1.54-6-2.31-9.36-2.31c-3.43,0-6.56,0.77-9.41,2.31
		c-2.85,1.54-5.12,3.89-6.84,7.04c-1.71,3.15-2.57,6.99-2.57,11.51c0,4.59,0.84,8.47,2.52,11.62c1.68,3.15,3.92,5.5,6.73,7.04
		c2.81,1.54,5.89,2.31,9.25,2.31C179.74,152.28,182.89,151.49,185.84,149.92z"/>
	<path d="M226.96,83.5v76.08h-9.36V83.5H226.96z"/>
	<path d="M243.2,92.24c-1.23-1.23-1.85-2.74-1.85-4.52c0-1.78,0.62-3.29,1.85-4.52c1.23-1.23,2.74-1.85,4.52-1.85
		c1.71,0,3.17,0.62,4.37,1.85c1.2,1.23,1.8,2.74,1.8,4.52c0,1.78-0.6,3.29-1.8,4.52c-1.2,1.23-2.66,1.85-4.37,1.85
		C245.94,94.09,244.44,93.47,243.2,92.24z M252.25,103.24v56.34h-9.36v-56.34H252.25z"/>
	<path d="M312.29,108.43c4.25,4.15,6.38,10.13,6.38,17.94v33.21h-9.25v-31.87c0-5.62-1.41-9.92-4.21-12.9
		c-2.81-2.98-6.65-4.47-11.52-4.47c-4.93,0-8.86,1.54-11.77,4.63c-2.91,3.08-4.37,7.57-4.37,13.47v31.15h-9.36v-56.34h9.36v8.02
		c1.85-2.88,4.37-5.11,7.56-6.68c3.19-1.58,6.7-2.36,10.54-2.36C302.49,102.21,308.04,104.28,312.29,108.43z"/>
	<path d="M434.12,88.43v71.15h-9.36v-53.05l-23.65,53.05h-6.58l-23.75-53.15v53.15h-9.36V88.43h10.08l26.32,58.81l26.32-58.81
		H434.12z"/>
	<path d="M450.26,92.24c-1.23-1.23-1.85-2.74-1.85-4.52c0-1.78,0.62-3.29,1.85-4.52c1.23-1.23,2.74-1.85,4.52-1.85
		c1.71,0,3.17,0.62,4.37,1.85c1.2,1.23,1.8,2.74,1.8,4.52c0,1.78-0.6,3.29-1.8,4.52c-1.2,1.23-2.66,1.85-4.37,1.85
		C453.01,94.09,451.5,93.47,450.26,92.24z M459.31,103.24v56.34h-9.36v-56.34H459.31z"/>
	<path d="M484.6,83.5v76.08h-9.36V83.5H484.6z"/>
	<path d="M509.89,83.5v76.08h-9.36V83.5H509.89z"/>
	<path d="M576.92,134.9h-45.03c0.34,5.55,2.24,9.89,5.71,13.01c3.46,3.12,7.66,4.68,12.59,4.68c4.04,0,7.42-0.94,10.13-2.83
		c2.71-1.88,4.61-4.4,5.71-7.56h10.08c-1.51,5.42-4.52,9.82-9.05,13.21c-4.52,3.39-10.14,5.09-16.86,5.09
		c-5.35,0-10.13-1.2-14.34-3.6c-4.21-2.4-7.52-5.81-9.92-10.23c-2.4-4.42-3.6-9.54-3.6-15.37c0-5.82,1.17-10.93,3.5-15.32
		c2.33-4.39,5.6-7.76,9.82-10.13c4.21-2.36,9.06-3.55,14.55-3.55c5.35,0,10.08,1.17,14.19,3.5c4.11,2.33,7.28,5.54,9.51,9.61
		c2.23,4.08,3.34,8.69,3.34,13.83C577.23,131.03,577.13,132.92,576.92,134.9z M565.2,118.09c-1.58-2.57-3.72-4.52-6.43-5.86
		c-2.71-1.34-5.71-2-9-2c-4.73,0-8.76,1.51-12.08,4.52c-3.33,3.02-5.23,7.2-5.71,12.54h35.57
		C567.57,123.73,566.78,120.67,565.2,118.09z"/>
	<path d="M605.97,104.88c3.05-1.78,6.77-2.67,11.15-2.67v9.66h-2.47c-10.49,0-15.73,5.69-15.73,17.07v30.64h-9.36v-56.34h9.36v9.15
		C600.57,109.17,602.92,106.67,605.97,104.88z"/>
</g>
</svg>
